<svg xmlns="http://www.w3.org/2000/svg" viewBox="0 0 156.56 156.56"><defs><style>.cls-1{fill:#211915;stroke:#211915;stroke-miterlimit:10;}</style></defs><title>sonrisa_1</title><g id="Capa_2" data-name="Capa 2"><g id="Capa_1-2" data-name="Capa 1"><path id="cara" class="cls-1" d="M78.28.5a77.78,77.78,0,1,0,77.78,77.78A77.78,77.78,0,0,0,78.28.5ZM44.62,35.79A21.25,21.25,0,1,1,23.38,57,21.24,21.24,0,0,1,44.62,35.79ZM78.28,138.41c-28,0-51-20.73-51-45.92h102C129.26,117.68,106.24,138.41,78.28,138.41Zm33.33-60.13A21.25,21.25,0,1,1,132.85,57,21.24,21.24,0,0,1,111.61,78.28Z"/><circle id="ojo_izquierdo" class="cls-1" cx="44.62" cy="57.04" r="8.66"/><circle id="ojo_derecho" class="cls-1" cx="111.61" cy="57.04" r="8.99"/></g></g></svg>