<?xml version="1.0" encoding="utf-8"?>
<!-- Generator: Adobe Illustrator 23.1.0, SVG Export Plug-In . SVG Version: 6.00 Build 0)  -->
<svg version="1.1" id="Capa_1" xmlns="http://www.w3.org/2000/svg" xmlns:xlink="http://www.w3.org/1999/xlink" x="0px" y="0px"
	 viewBox="0 0 600 350" style="enable-background:new 0 0 600 350;" xml:space="preserve">
<style type="text/css">
	.st0{fill:#FFFFFF;}
</style>
<g transform="translate(0.000000,350.000000) scale(0.100000,-0.100000)">
	<path class="st0" d="M3977.9,1877.5c-30,61-1550,1572-1611,1602c-58,27-165,29-223,2c-52-23-103-74-126-126c-26-57-25-162,2-220
		c16-34,187-210,697-715l675-670l-675-670c-510-505-681-681-697-715c-27-58-28-163-2-220c23-52,74-103,126-126c54-25,166-25,221,0
		c57,26,1584,1545,1613,1605C4007.9,1684.5,4007.9,1818.5,3977.9,1877.5z"/>
</g>
</svg>
